<?xml version="1.0" encoding="utf-8"?>
<!-- Generator: Adobe Illustrator 22.0.0, SVG Export Plug-In . SVG Version: 6.00 Build 0)  -->
<svg version="1.1" id="Layer_1" xmlns="http://www.w3.org/2000/svg" xmlns:xlink="http://www.w3.org/1999/xlink" x="0px" y="0px"
	 viewBox="0 0 1080 1080" style="enable-background:new 0 0 1080 1080;" xml:space="preserve">
<style type="text/css">
	.st0{fill:url(#SVGID_1_);}
	.st1{fill:url(#SVGID_2_);}
	.st2{fill:url(#SVGID_3_);}
	.st3{fill:#FFFFFF;}
	.st4{fill:url(#SVGID_4_);}
	.st5{fill:url(#SVGID_5_);}
	.st6{fill:url(#SVGID_6_);}
	.st7{fill:url(#SVGID_7_);}
	.st8{fill:url(#SVGID_8_);}
	.st9{fill:url(#SVGID_9_);}
	.st10{fill:url(#SVGID_10_);}
	.st11{fill:url(#SVGID_11_);}
	.st12{fill:url(#SVGID_12_);}
	.st13{fill:url(#SVGID_13_);}
	.st14{fill:url(#SVGID_14_);}
	.st15{fill:url(#SVGID_15_);}
	.st16{fill:url(#SVGID_16_);}
	.st17{fill:url(#SVGID_17_);}
	.st18{fill:url(#SVGID_18_);}
	.st19{fill:url(#SVGID_19_);}
	.st20{fill:url(#SVGID_20_);}
	.st21{fill:url(#SVGID_21_);}
	.st22{fill:url(#SVGID_22_);}
	.st23{fill:url(#SVGID_23_);}
	.st24{fill:url(#SVGID_24_);}
	.st25{fill:url(#SVGID_25_);}
	.st26{fill:url(#SVGID_26_);}
	.st27{fill:url(#SVGID_27_);}
	.st28{fill:url(#SVGID_28_);}
	.st29{fill:url(#SVGID_29_);}
	.st30{fill:url(#SVGID_30_);}
	.st31{fill:url(#SVGID_31_);}
	.st32{fill:url(#SVGID_32_);}
	.st33{fill:url(#SVGID_33_);}
	.st34{fill:url(#SVGID_34_);}
	.st35{fill:url(#SVGID_35_);}
	.st36{fill:url(#SVGID_36_);}
	.st37{fill:url(#SVGID_37_);}
	.st38{opacity:0.8;fill:none;stroke:#FFFFFF;stroke-width:3;stroke-miterlimit:10;}
	.st39{opacity:0.7;fill:url(#SVGID_38_);}
	.st40{opacity:0.7;fill:url(#SVGID_39_);}
</style>
<linearGradient id="SVGID_1_" gradientUnits="userSpaceOnUse" x1="385.012" y1="-204.8278" x2="792.84" y2="1755.0686">
	<stop  offset="0" style="stop-color:#614B79"/>
	<stop  offset="1" style="stop-color:#4C3263"/>
</linearGradient>
<rect class="st0" width="1080" height="1080"/>
<g>
	<g>
		<g>
			<path class="st3" d="M615.8,914.8c0-3.8,0.7-7.5,2-10.9c1.3-3.4,3.2-6.4,5.7-9c2.4-2.6,5.4-4.6,8.8-6.1c3.4-1.5,7.2-2.3,11.4-2.3
				c5.5,0,10.2,1.2,14.1,3.6c4,2.4,6.9,5.7,9,9.7l-9,2.8c-1.4-2.6-3.4-4.6-5.9-6c-2.5-1.4-5.3-2.2-8.4-2.2c-2.5,0-4.9,0.5-7.1,1.5
				c-2.2,1-4.2,2.4-5.8,4.3c-1.6,1.8-2.9,4-3.8,6.4c-0.9,2.5-1.4,5.1-1.4,8.1c0,2.9,0.5,5.6,1.5,8.1c1,2.5,2.3,4.7,3.9,6.6
				c1.6,1.9,3.6,3.3,5.8,4.4c2.2,1,4.6,1.6,7.1,1.6c1.6,0,3.2-0.2,4.8-0.7c1.6-0.5,3-1.1,4.3-1.8c1.3-0.8,2.4-1.7,3.4-2.7
				c1-1,1.7-2.1,2.1-3.3l9,2.7c-0.8,2-2,3.9-3.5,5.6c-1.5,1.7-3.3,3.1-5.3,4.3c-2,1.2-4.3,2.1-6.8,2.8c-2.5,0.7-5.1,1-7.8,1
				c-4.1,0-7.9-0.8-11.3-2.3c-3.4-1.5-6.4-3.6-8.8-6.2c-2.5-2.6-4.4-5.6-5.7-9.1S615.8,918.6,615.8,914.8z"/>
			<path class="st3" d="M706.6,895.6c-4.6,0.1-8.7,1.3-12.2,3.6c-3.5,2.2-6,5.4-7.5,9.3v33.8h-9.2v-54.8h8.6v12.7
				c1.9-3.8,4.4-6.8,7.5-9.2c3.1-2.3,6.4-3.7,9.9-3.9c0.7,0,1.3,0,1.8,0c0.5,0,0.9,0,1.3,0.1V895.6z"/>
			<path class="st3" d="M738.7,943.4c-4.1,0-7.9-0.8-11.3-2.3c-3.4-1.5-6.4-3.6-8.8-6.1c-2.5-2.6-4.4-5.6-5.7-9.1
				c-1.4-3.5-2-7.1-2-11c0-3.8,0.7-7.5,2-10.9c1.4-3.4,3.3-6.4,5.8-9c2.5-2.6,5.4-4.6,8.9-6.1c3.4-1.5,7.2-2.3,11.3-2.3
				c4.1,0,7.9,0.8,11.3,2.3c3.4,1.5,6.3,3.6,8.7,6.1c2.4,2.6,4.2,5.5,5.5,8.9c1.3,3.4,1.9,6.9,1.9,10.6c0,0.8,0,1.5-0.1,2.1
				c0,0.6-0.1,1.1-0.2,1.5h-45.5c0.2,2.7,0.8,5.2,1.9,7.5c1,2.2,2.4,4.2,4.1,5.8c1.7,1.6,3.6,2.9,5.7,3.8c2.1,0.9,4.4,1.4,6.8,1.4
				c1.7,0,3.3-0.2,4.9-0.7c1.6-0.5,3.1-1.1,4.5-1.8c1.4-0.8,2.6-1.7,3.7-2.8c1.1-1.1,1.9-2.4,2.5-3.8l8,2.2c-0.9,2-2.2,3.9-3.7,5.6
				c-1.6,1.7-3.4,3.1-5.5,4.4c-2.1,1.2-4.4,2.2-6.9,2.9S741.5,943.4,738.7,943.4z M757.5,911.2c-0.2-2.6-0.9-5-1.9-7.2
				c-1.1-2.2-2.5-4.1-4.1-5.6c-1.6-1.5-3.6-2.7-5.7-3.6c-2.2-0.9-4.5-1.3-6.9-1.3c-2.5,0-4.8,0.4-6.9,1.3c-2.2,0.9-4.1,2.1-5.7,3.7
				c-1.6,1.6-3,3.4-4,5.6c-1,2.2-1.6,4.6-1.8,7.1H757.5z"/>
			<path class="st3" d="M843.8,887.5h8.9l-23.3,54.8h-7.7l-11-26.8l-10.9,26.8h-7.7l-23.3-54.8h8.8l18.9,45.7l9.2-22.8l-9.5-22.8
				h7.7l6.7,17.5l6.7-17.5h7.7l-9.3,22.8l9.2,22.8L843.8,887.5z"/>
		</g>
		<g>
			<path class="st3" d="M271.3,928.4c-0.4,1.3-1.2,2.5-2.3,3.7c-1.1,1.2-2.5,2.2-4,3.1c-1.5,0.9-3.2,1.6-5.1,2.2
				c-1.8,0.5-3.7,0.8-5.5,0.8c-2.9,0-5.6-0.6-8.2-1.8c-2.6-1.2-4.8-2.9-6.7-5c-1.9-2.1-3.4-4.6-4.5-7.4c-1.1-2.8-1.7-5.9-1.7-9.1
				c0-3.2,0.6-6.3,1.7-9c1.1-2.8,2.6-5.2,4.5-7.3c1.9-2,4.1-3.7,6.6-4.8c2.5-1.2,5.3-1.7,8.2-1.7c3.5,0,6.7,0.8,9.6,2.5
				c2.9,1.7,5.2,4,6.7,6.9l0.2,0.3l5.9-1.9l-0.2-0.4c-1.9-4-4.8-7.3-8.7-9.5c-3.8-2.3-8.3-3.4-13.3-3.4c-4,0-7.7,0.8-11,2.2
				c-3.3,1.5-6.2,3.5-8.6,6.1c-2.4,2.5-4.3,5.6-5.7,9.1c-1.3,3.5-2,7.2-2,11.1c0,4,0.7,7.7,2.1,11.2c1.4,3.5,3.3,6.6,5.8,9.2
				c2.4,2.7,5.4,4.8,8.7,6.3c3.3,1.5,7,2.3,10.9,2.3c2.5,0,5.1-0.3,7.5-1c2.4-0.7,4.6-1.6,6.6-2.8c2-1.2,3.7-2.7,5.2-4.3
				c1.5-1.7,2.6-3.5,3.3-5.4l0.2-0.4l-6-1.7L271.3,928.4z"/>
			<path class="st3" d="M311.3,887.2c-3.6,0.4-7.1,1.8-10.2,4.2c-2.7,2.1-5,4.8-6.8,8v-12.2h-5.9v55.4h6.1v-34.5
				c1.4-4.7,4-8.4,7.6-11.1c3.6-2.7,7.8-4.1,12.6-4.3l0.4,0v-5.8h-1.8C312.7,887.1,312,887.1,311.3,887.2z"/>
			<path class="st3" d="M364.2,894.8c-2.4-2.6-5.3-4.7-8.6-6.2c-3.3-1.5-7-2.3-10.9-2.3c-3.8,0-7.4,0.8-10.7,2.2
				c-3.3,1.5-6.2,3.6-8.6,6.1c-2.4,2.6-4.3,5.6-5.7,9.1c-1.4,3.4-2.1,7.1-2.1,11c0,4,0.7,7.7,2.1,11.2c1.4,3.5,3.3,6.6,5.8,9.2
				c2.4,2.7,5.4,4.8,8.7,6.3c3.3,1.5,7,2.3,10.9,2.3c2.5,0,5.1-0.3,7.5-1c2.4-0.7,4.6-1.6,6.7-2.8c2-1.2,3.8-2.7,5.3-4.3
				c1.5-1.7,2.7-3.5,3.5-5.5l0.2-0.4l-5.4-1.5l-0.1,0.3c-0.7,1.5-1.6,2.9-2.8,4.1c-1.2,1.3-2.6,2.3-4.1,3.2c-1.5,0.9-3.2,1.6-5,2.1
				c-1.8,0.5-3.6,0.8-5.4,0.8c-2.8,0-5.5-0.6-7.9-1.6c-2.5-1.1-4.7-2.6-6.5-4.5c-1.9-1.9-3.5-4.2-4.7-6.9c-1.2-2.5-1.9-5.3-2.1-8.2
				h47.7l0.1-0.2c0.1-0.1,0.1-0.4,0.1-1.2v-1.3c0-3.8-0.7-7.5-2-10.9C368.6,900.5,366.7,897.4,364.2,894.8z M366,912.5h-42.1
				c0.2-2.9,0.9-5.7,2-8.2c1.1-2.6,2.7-4.9,4.5-6.8c1.9-1.9,4.1-3.4,6.5-4.4c2.5-1.1,5.1-1.6,7.9-1.6c2.8,0,5.5,0.5,7.9,1.6
				c2.5,1.1,4.7,2.5,6.5,4.4c1.9,1.9,3.4,4.2,4.6,6.8C365.1,906.7,365.8,909.5,366,912.5z"/>
			<path class="st3" d="M423.9,935v-26.7c0-6.8-1.9-12.2-5.8-16.1c-3.8-3.9-9.2-5.8-15.8-5.8c-6.4,0-13.2,2.4-20.2,7.2l-0.3,0.2
				l2.4,4.3l0.4-0.3c3-2.1,6.1-3.7,9-4.8c2.9-1.1,5.7-1.7,8.3-1.7c4.9,0,8.8,1.5,11.7,4.4c2.8,3,4.3,7,4.3,12v4.8
				c-2.3-0.8-4.8-1.5-7.5-2c-3-0.5-6-0.8-8.9-0.8c-3.4,0-6.5,0.4-9.4,1.2c-2.8,0.8-5.3,2-7.3,3.4c-2,1.5-3.6,3.2-4.8,5.2
				c-1.2,2-1.7,4.3-1.7,6.7c0,2.4,0.5,4.7,1.4,6.8c0.9,2.1,2.3,4,3.9,5.5c1.7,1.5,3.6,2.8,5.9,3.7c2.2,0.9,4.6,1.3,7.2,1.3
				c4.6,0,8.9-0.9,12.9-2.7c3.6-1.6,6.6-3.9,9.1-6.8v3.3l0,0c0.1,1.4,0.7,2.6,1.6,3.6c0.9,1,2.2,1.6,3.7,1.6c0.3,0,0.6,0,1-0.1
				c0.4,0,0.8-0.1,1.1-0.2l0.3-0.1v-5.5h-0.4C424.5,937.2,423.9,936.5,423.9,935z M417.8,917.2v9.4c0,1.2-0.5,2.6-1.6,4
				c-1.8,2.5-4.3,4.5-7.7,6c-3.3,1.5-7,2.3-11,2.3c-1.9,0-3.7-0.3-5.4-1c-1.7-0.6-3.1-1.5-4.3-2.6c-1.2-1.1-2.2-2.5-2.8-4
				c-0.7-1.5-1-3.2-1-5c0-1.7,0.4-3.3,1.3-4.8c0.8-1.4,2-2.7,3.6-3.7c1.6-1,3.5-1.8,5.7-2.4c2.2-0.6,4.7-0.9,7.3-0.9
				c2.9,0,5.7,0.2,8.4,0.7C412.9,915.6,415.4,916.3,417.8,917.2z"/>
			<path class="st3" d="M461.6,935.1c-0.2,0.1-0.9,0.5-2.9,1.4c-1.5,0.7-3.3,1.1-5.4,1.1c-1.7,0-3.2-0.5-4.5-1.4
				c-1.3-0.9-1.9-2.3-1.9-4.2v-39.5h12.7v-5.1h-12.7v-18.7h-6.1v18.7h-7.7v5.1h7.7v40.7c0,1.7,0.3,3.1,0.9,4.4
				c0.6,1.2,1.4,2.3,2.4,3.2c1,0.9,2.2,1.5,3.6,2c1.3,0.4,2.8,0.7,4.3,0.7c1.5,0,2.9-0.1,4.2-0.4c1.3-0.3,2.4-0.6,3.5-1
				c1-0.4,1.9-0.7,2.6-1.1c0.7-0.4,1.1-0.6,1.4-0.8l0.3-0.2l-1.9-5L461.6,935.1z"/>
			<rect x="472.2" y="865.2" class="st3" width="6.1" height="10.5"/>
			<rect x="472.2" y="887.3" class="st3" width="6.1" height="55.4"/>
			<polygon class="st3" points="514,936 494.1,887.3 487.7,887.3 510.9,942.7 516.9,942.7 540,887.3 534,887.3 			"/>
			<path class="st3" d="M596,903.9c-1.3-3.4-3.2-6.5-5.6-9.1c-2.4-2.6-5.3-4.7-8.6-6.2c-3.3-1.5-7-2.3-10.9-2.3
				c-3.8,0-7.4,0.8-10.7,2.2c-3.3,1.5-6.2,3.6-8.6,6.1c-2.4,2.6-4.3,5.6-5.7,9.1c-1.4,3.4-2.1,7.1-2.1,11c0,4,0.7,7.7,2.1,11.2
				c1.4,3.5,3.3,6.6,5.8,9.2c2.4,2.7,5.4,4.8,8.7,6.3c3.3,1.5,7,2.3,10.9,2.3c2.5,0,5.1-0.3,7.5-1c2.4-0.7,4.7-1.6,6.7-2.8
				c2-1.2,3.8-2.7,5.3-4.3c1.5-1.7,2.7-3.5,3.5-5.5l0.2-0.4l-5.4-1.5l-0.1,0.3c-0.7,1.5-1.6,2.9-2.8,4.1c-1.2,1.3-2.6,2.3-4.1,3.2
				c-1.5,0.9-3.2,1.6-5,2.1c-1.8,0.5-3.6,0.8-5.4,0.8c-2.8,0-5.5-0.6-7.9-1.6c-2.5-1.1-4.7-2.6-6.5-4.5c-1.9-1.9-3.5-4.2-4.7-6.9
				c-1.2-2.5-1.9-5.3-2.1-8.2h47.7l0.1-0.2c0.1-0.1,0.1-0.4,0.1-1.2v-1.3C598,911,597.3,907.3,596,903.9z M592.1,912.5h-42.1
				c0.2-2.9,0.9-5.7,2-8.2c1.1-2.6,2.7-4.9,4.5-6.8c1.9-1.9,4.1-3.4,6.5-4.4c2.5-1.1,5.1-1.6,7.9-1.6c2.8,0,5.5,0.5,7.9,1.6
				c2.5,1.1,4.7,2.5,6.5,4.4c1.9,1.9,3.4,4.2,4.6,6.8C591.2,906.7,591.9,909.5,592.1,912.5z"/>
		</g>
	</g>
	<g>
		<path class="st3" d="M537,136.2c-86,0-166.8,33.3-227.7,93.8C248.5,290.5,215,370.9,215,456.5c0,85.5,33.5,166,94.3,226.4
			c60.8,60.5,141.7,93.8,227.7,93.8c86,0,169.5-32.4,230.3-92.9C828,623.3,865,542,865,456.5c0-85.5-37-166.8-97.8-227.3
			C706.4,168.7,622.9,136.2,537,136.2z M750.9,667.3c-56.1,55.9-134.2,85-213.5,85.1l3.9,0l-0.3-61
			c-130.5-1.4-236.4-104.9-236.4-234.9c0-138.1,125.8-234.6,235.8-234.6l0.2-61.2l-1.1-0.1c78.5,0.7,156.6,28.9,212.2,84.2
			c56.1,55.9,89.6,132.7,89.6,211.7C841.4,535.4,807,611.4,750.9,667.3z"/>
		<path class="st3" d="M544.7,688.9c126.1-1,231.9-106.8,231.9-232.3c0-125.4-105.8-231.2-232-232.6l0.1,57.2l-2.2,0
			c-96.9,0.2-175.8,78.8-175.8,175.2c0,96.4,78.8,175,175.8,175.2l2.2,0L544.7,688.9z M435.7,563.6c-28.8-28.6-44.6-66.7-44.6-107.1
			s15.8-78.5,44.6-107.1c28.8-28.6,67-44.4,107.7-44.4s78.9,15.8,107.7,44.4c28.8,28.6,44.6,66.7,44.6,107.1s-15.8,78.5-44.6,107.1
			c-28.8,28.6-67,44.4-107.7,44.4S464.4,592.2,435.7,563.6z"/>
	</g>
</g>
</svg>
