<?xml version="1.0" encoding="utf-8"?>
<!-- Generator: Adobe Illustrator 22.0.0, SVG Export Plug-In . SVG Version: 6.00 Build 0)  -->
<svg version="1.1" id="Layer_1" xmlns="http://www.w3.org/2000/svg" xmlns:xlink="http://www.w3.org/1999/xlink" x="0px" y="0px"
	 viewBox="0 0 1920 1080" style="enable-background:new 0 0 1920 1080;" xml:space="preserve">
<style type="text/css">
	.st0{fill:url(#SVGID_1_);}
	.st1{fill:url(#SVGID_2_);}
	.st2{fill:url(#SVGID_3_);}
	.st3{fill:#FFFFFF;}
	.st4{fill:url(#SVGID_4_);}
	.st5{fill:url(#SVGID_5_);}
	.st6{fill:url(#SVGID_6_);}
	.st7{fill:url(#SVGID_7_);}
	.st8{fill:url(#SVGID_8_);}
	.st9{fill:url(#SVGID_9_);}
	.st10{fill:url(#SVGID_10_);}
	.st11{fill:url(#SVGID_11_);}
	.st12{fill:url(#SVGID_12_);}
	.st13{fill:url(#SVGID_13_);}
	.st14{fill:url(#SVGID_14_);}
	.st15{fill:url(#SVGID_15_);}
	.st16{fill:url(#SVGID_16_);}
	.st17{fill:url(#SVGID_17_);}
	.st18{fill:url(#SVGID_18_);}
	.st19{fill:url(#SVGID_19_);}
	.st20{fill:url(#SVGID_20_);}
	.st21{fill:url(#SVGID_21_);}
	.st22{fill:url(#SVGID_22_);}
	.st23{fill:url(#SVGID_23_);}
	.st24{fill:url(#SVGID_24_);}
	.st25{fill:url(#SVGID_25_);}
	.st26{fill:url(#SVGID_26_);}
	.st27{fill:url(#SVGID_27_);}
	.st28{fill:url(#SVGID_28_);}
	.st29{fill:url(#SVGID_29_);}
	.st30{fill:url(#SVGID_30_);}
	.st31{fill:url(#SVGID_31_);}
	.st32{fill:url(#SVGID_32_);}
	.st33{fill:url(#SVGID_33_);}
	.st34{fill:url(#SVGID_34_);}
	.st35{fill:url(#SVGID_35_);}
	.st36{fill:url(#SVGID_36_);}
	.st37{fill:url(#SVGID_37_);}
	.st38{opacity:0.8;fill:none;stroke:#FFFFFF;stroke-width:3;stroke-miterlimit:10;}
	.st39{opacity:0.7;fill:url(#SVGID_38_);}
	.st40{opacity:0.7;fill:url(#SVGID_39_);}
</style>
<g>
	<linearGradient id="SVGID_1_" gradientUnits="userSpaceOnUse" x1="457.8355" y1="408.0495" x2="508.6355" y2="798.1337">
		<stop  offset="0" style="stop-color:#614B79"/>
		<stop  offset="1" style="stop-color:#4C3263"/>
	</linearGradient>
	<path class="st0" d="M476.1,427.4c-34.9,0-67.7,13.5-92.4,38.1c-24.7,24.6-38.3,57.2-38.3,91.9c0,34.7,13.6,67.4,38.3,91.9
		c24.7,24.6,57.5,38.1,92.4,38.1c34.9,0,68.8-13.2,93.5-37.7c24.7-24.6,39.7-57.6,39.7-92.3c0-34.7-15-67.7-39.7-92.3
		C544.9,440.6,511,427.4,476.1,427.4z M563,643c-22.8,22.7-54.5,34.5-86.7,34.5l1.6,0l-0.1-24.8c-53-0.6-96-42.6-96-95.4
		c0-56,51.1-95.2,95.7-95.2l0.1-24.9l-0.5,0c31.9,0.3,63.6,11.7,86.1,34.2c22.8,22.7,36.4,53.9,36.4,85.9
		C599.7,589.5,585.7,620.4,563,643z"/>
	<linearGradient id="SVGID_2_" gradientUnits="userSpaceOnUse" x1="573.8056" y1="414.4774" x2="384.1319" y2="745.1011">
		<stop  offset="0" style="stop-color:#614B79"/>
		<stop  offset="1" style="stop-color:#4C3263"/>
	</linearGradient>
	<path class="st1" d="M479.3,651.8c51.2-0.4,94.1-43.4,94.1-94.3c0-50.9-42.9-93.8-94.2-94.4l0,23.2l-0.9,0
		c-39.3,0.1-71.3,32-71.3,71.1c0,39.1,32,71,71.3,71.1l0.9,0L479.3,651.8z M435,600.9c-11.7-11.6-18.1-27.1-18.1-43.5
		c0-16.4,6.4-31.9,18.1-43.5c11.7-11.6,27.2-18,43.7-18s32,6.4,43.7,18c11.7,11.6,18.1,27.1,18.1,43.5c0,16.4-6.4,31.9-18.1,43.5
		c-11.7,11.6-27.2,18-43.7,18S446.7,612.5,435,600.9z"/>
</g>
<g>
	<linearGradient id="SVGID_3_" gradientUnits="userSpaceOnUse" x1="1229.2814" y1="573.2918" x2="1304.1279" y2="573.2918">
		<stop  offset="0" style="stop-color:#614B79"/>
		<stop  offset="1" style="stop-color:#4C3263"/>
	</linearGradient>
	<path class="st2" d="M1229.3,573.1c0-5.6,1-10.9,2.9-15.9c1.9-5,4.7-9.4,8.3-13.1c3.6-3.7,7.8-6.7,12.8-8.9
		c4.9-2.2,10.5-3.3,16.6-3.3c8,0,14.8,1.8,20.6,5.3c5.8,3.5,10.1,8.2,13.1,14.2l-13.2,4.1c-2-3.8-4.9-6.7-8.6-8.8
		c-3.7-2.1-7.8-3.1-12.2-3.1c-3.7,0-7.1,0.7-10.4,2.2c-3.3,1.5-6.1,3.5-8.4,6.2c-2.3,2.7-4.2,5.8-5.6,9.3c-1.4,3.6-2.1,7.5-2.1,11.8
		c0,4.2,0.7,8.1,2.1,11.8c1.4,3.7,3.3,6.9,5.7,9.6c2.4,2.7,5.2,4.8,8.4,6.4c3.2,1.5,6.7,2.3,10.3,2.3c2.3,0,4.7-0.3,7-1
		c2.3-0.7,4.4-1.6,6.3-2.7c1.9-1.1,3.5-2.4,5-3.9c1.4-1.5,2.4-3.1,3.1-4.8l13.2,4c-1.2,3-2.9,5.7-5.1,8.1c-2.2,2.4-4.8,4.5-7.7,6.3
		c-3,1.7-6.3,3.1-9.9,4.1c-3.6,1-7.4,1.5-11.4,1.5c-6,0-11.5-1.1-16.5-3.4c-5-2.2-9.3-5.3-12.9-9c-3.6-3.8-6.4-8.2-8.3-13.2
		C1230.3,584,1229.3,578.7,1229.3,573.1z"/>
	<linearGradient id="SVGID_4_" gradientUnits="userSpaceOnUse" x1="1319.4316" y1="572.9094" x2="1361.6763" y2="572.9094">
		<stop  offset="0" style="stop-color:#614B79"/>
		<stop  offset="1" style="stop-color:#4C3263"/>
	</linearGradient>
	<path class="st4" d="M1361.7,545.1c-6.7,0.2-12.7,1.9-17.8,5.2c-5.2,3.3-8.8,7.8-10.9,13.6v49.3h-13.5v-79.9h12.6v18.5
		c2.8-5.5,6.4-10,10.9-13.4c4.5-3.4,9.3-5.3,14.4-5.7c1,0,1.9,0,2.6,0c0.7,0,1.3,0.1,1.8,0.2V545.1z"/>
	<linearGradient id="SVGID_5_" gradientUnits="userSpaceOnUse" x1="1367.7994" y1="573.2918" x2="1448.6154" y2="573.2918">
		<stop  offset="0" style="stop-color:#614B79"/>
		<stop  offset="1" style="stop-color:#4C3263"/>
	</linearGradient>
	<path class="st5" d="M1408.5,614.7c-6,0-11.5-1.1-16.5-3.3c-5-2.2-9.3-5.2-12.9-9c-3.6-3.8-6.4-8.2-8.3-13.2c-2-5.1-3-10.4-3-16
		c0-5.6,1-10.9,3-15.9c2-5,4.8-9.4,8.4-13.2c3.6-3.8,7.9-6.8,12.9-9c5-2.2,10.5-3.3,16.5-3.3c6,0,11.5,1.1,16.5,3.4
		c4.9,2.2,9.2,5.2,12.6,9c3.5,3.7,6.1,8.1,8,13c1.9,5,2.8,10.1,2.8,15.4c0,1.1,0,2.1-0.1,3.1c-0.1,0.9-0.1,1.6-0.2,2.1H1382
		c0.3,4,1.2,7.6,2.8,10.9c1.5,3.3,3.5,6.1,6,8.4c2.4,2.3,5.2,4.2,8.3,5.5c3.1,1.3,6.4,2,9.9,2c2.4,0,4.8-0.3,7.2-1
		c2.3-0.7,4.5-1.6,6.6-2.7c2-1.1,3.8-2.5,5.4-4.1c1.6-1.6,2.8-3.5,3.6-5.5l11.6,3.2c-1.3,3-3.1,5.7-5.4,8.1c-2.3,2.4-5,4.6-8,6.4
		c-3,1.8-6.4,3.2-10,4.2C1416.3,614.2,1412.5,614.7,1408.5,614.7z M1435.9,567.9c-0.3-3.8-1.3-7.3-2.8-10.5c-1.6-3.2-3.6-5.9-6-8.2
		c-2.4-2.2-5.2-4-8.3-5.3c-3.2-1.3-6.5-1.9-10.1-1.9c-3.6,0-6.9,0.6-10.1,1.9c-3.2,1.3-5.9,3.1-8.3,5.4c-2.4,2.3-4.3,5-5.8,8.2
		c-1.5,3.2-2.4,6.6-2.7,10.4H1435.9z"/>
	<linearGradient id="SVGID_6_" gradientUnits="userSpaceOnUse" x1="1452.2878" y1="573.2153" x2="1574.5845" y2="573.2153">
		<stop  offset="0" style="stop-color:#614B79"/>
		<stop  offset="1" style="stop-color:#4C3263"/>
	</linearGradient>
	<path class="st6" d="M1561.6,533.3h13l-34,79.9h-11.2l-16.1-39l-15.9,39h-11.2l-34-79.9h12.9l27.6,66.6l13.5-33.2l-13.8-33.2h11.2
		l9.8,25.6l9.8-25.6h11.2l-13.6,33.2l13.5,33.2L1561.6,533.3z"/>
</g>
<g>
	<linearGradient id="SVGID_7_" gradientUnits="userSpaceOnUse" x1="663.0884" y1="572.8316" x2="736.1396" y2="572.8316">
		<stop  offset="0" style="stop-color:#614B79"/>
		<stop  offset="1" style="stop-color:#4C3263"/>
	</linearGradient>
	<path class="st7" d="M727.2,592.3c-0.6,1.8-1.7,3.6-3.3,5.4c-1.6,1.7-3.6,3.3-5.8,4.6c-2.2,1.3-4.7,2.4-7.4,3.2
		c-2.6,0.8-5.3,1.2-8,1.2c-4.2,0-8.2-0.9-11.9-2.7c-3.7-1.8-7-4.2-9.8-7.3c-2.7-3-5-6.7-6.6-10.8c-1.6-4.1-2.5-8.6-2.5-13.3
		c0-4.7,0.8-9.1,2.4-13.2c1.6-4,3.8-7.6,6.5-10.6c2.7-3,6-5.4,9.7-7.1c3.7-1.7,7.7-2.5,12-2.5c5.1,0,9.8,1.2,14,3.7
		c4.2,2.4,7.5,5.8,9.8,10.1l0.2,0.5l8.7-2.8l-0.3-0.6c-2.8-5.9-7-10.6-12.6-13.9c-5.6-3.3-12.1-5-19.4-5c-5.8,0-11.2,1.1-16,3.3
		c-4.8,2.2-9.1,5.1-12.6,8.9c-3.5,3.7-6.3,8.2-8.2,13.2c-2,5-3,10.5-3,16.1c0,5.8,1,11.3,3,16.3c2,5,4.8,9.6,8.4,13.4
		c3.6,3.9,7.8,7,12.7,9.2c4.9,2.2,10.2,3.3,15.9,3.3c3.7,0,7.4-0.5,10.9-1.5c3.5-1,6.8-2.4,9.6-4.1c2.9-1.8,5.4-3.9,7.6-6.3
		c2.1-2.4,3.7-5.1,4.8-7.9l0.2-0.6l-8.7-2.5L727.2,592.3z"/>
	<linearGradient id="SVGID_8_" gradientUnits="userSpaceOnUse" x1="752.0167" y1="572.6021" x2="790.8958" y2="572.6021">
		<stop  offset="0" style="stop-color:#614B79"/>
		<stop  offset="1" style="stop-color:#4C3263"/>
	</linearGradient>
	<path class="st8" d="M785.5,532.2c-5.3,0.5-10.3,2.6-14.9,6.2c-4,3.1-7.3,7-10,11.7v-17.7H752v80.8h8.9v-50.3
		c2.1-6.8,5.8-12.3,11-16.2c5.2-3.9,11.4-6,18.4-6.2l0.6,0V532h-2.6C787.5,532,786.5,532.1,785.5,532.2z"/>
	<linearGradient id="SVGID_9_" gradientUnits="userSpaceOnUse" x1="794.721" y1="572.8316" x2="873.8566" y2="572.8316">
		<stop  offset="0" style="stop-color:#614B79"/>
		<stop  offset="1" style="stop-color:#4C3263"/>
	</linearGradient>
	<path class="st9" d="M862.7,543.3c-3.5-3.8-7.7-6.8-12.6-9c-4.9-2.2-10.2-3.3-15.9-3.3c-5.6,0-10.8,1.1-15.6,3.3
		c-4.8,2.2-9,5.2-12.5,8.9c-3.5,3.8-6.3,8.2-8.3,13.2c-2,5-3,10.4-3,16.1c0,5.8,1,11.3,3,16.3c2,5,4.8,9.6,8.4,13.4
		c3.6,3.9,7.8,7,12.7,9.2c4.9,2.2,10.2,3.3,15.9,3.3c3.7,0,7.4-0.5,10.9-1.5c3.5-1,6.8-2.4,9.7-4.1c2.9-1.8,5.6-3.9,7.8-6.3
		c2.2-2.4,3.9-5.2,5.1-8.1l0.3-0.6l-7.9-2.2l-0.2,0.5c-1,2.2-2.4,4.2-4.1,6c-1.7,1.8-3.8,3.4-6,4.7c-2.2,1.3-4.7,2.3-7.3,3.1
		c-2.6,0.7-5.3,1.1-7.9,1.1c-4.1,0-8-0.8-11.5-2.4c-3.6-1.6-6.8-3.8-9.5-6.6c-2.7-2.8-5-6.2-6.8-10c-1.7-3.7-2.8-7.7-3.1-11.9h69.5
		l0.2-0.3c0.1-0.2,0.2-0.6,0.2-1.7v-1.9c0-5.6-1-10.9-3-15.9C868.9,551.5,866.2,547.1,862.7,543.3z M865.2,569.1h-61.4
		c0.3-4.3,1.3-8.3,2.9-11.9c1.6-3.8,3.9-7.2,6.6-9.9c2.7-2.7,5.9-4.9,9.5-6.5c3.6-1.5,7.5-2.3,11.5-2.3c4.1,0,8,0.8,11.5,2.3
		c3.6,1.5,6.8,3.7,9.5,6.5c2.7,2.7,5,6.1,6.8,9.8C863.9,560.7,864.9,564.7,865.2,569.1z"/>
	<linearGradient id="SVGID_10_" gradientUnits="userSpaceOnUse" x1="882.8828" y1="572.8316" x2="952.9874" y2="572.8316">
		<stop  offset="0" style="stop-color:#614B79"/>
		<stop  offset="1" style="stop-color:#4C3263"/>
	</linearGradient>
	<path class="st10" d="M949.6,601.8V563c0-9.9-2.8-17.8-8.4-23.5c-5.6-5.7-13.4-8.5-23.1-8.5c-9.3,0-19.2,3.5-29.4,10.5l-0.5,0.3
		l3.5,6.3l0.6-0.4c4.4-3,8.8-5.4,13.1-7c4.3-1.6,8.3-2.4,12.1-2.4c7.1,0,12.9,2.2,17,6.5c4.2,4.3,6.3,10.2,6.3,17.6v6.9
		c-3.3-1.2-7-2.2-11-2.9c-4.4-0.8-8.7-1.2-13-1.2c-4.9,0-9.5,0.6-13.6,1.8c-4.1,1.2-7.7,2.9-10.7,5c-3,2.1-5.3,4.7-7,7.6
		c-1.7,2.9-2.5,6.2-2.5,9.8c0,3.5,0.7,6.9,2,10c1.4,3.1,3.3,5.8,5.7,8c2.4,2.2,5.3,4,8.5,5.3c3.2,1.3,6.8,2,10.5,2
		c6.7,0,13-1.3,18.8-3.9c5.2-2.3,9.7-5.6,13.2-9.8v4.8l0,0.1c0.2,2.1,1,3.8,2.3,5.3c1.3,1.5,3.1,2.3,5.4,2.3c0.4,0,0.9,0,1.5-0.1
		c0.6-0.1,1.1-0.1,1.7-0.2l0.5-0.1v-8h-0.6C950.5,605,949.6,604.1,949.6,601.8z M940.7,575.9v13.7c0,1.8-0.8,3.7-2.3,5.8
		c-2.6,3.6-6.3,6.5-11.2,8.7c-4.8,2.2-10.2,3.3-16,3.3c-2.8,0-5.4-0.5-7.8-1.4c-2.4-0.9-4.5-2.2-6.3-3.9c-1.8-1.6-3.2-3.6-4.1-5.8
		c-1-2.3-1.5-4.7-1.5-7.3c0-2.5,0.6-4.9,1.8-7c1.2-2.1,3-3.9,5.2-5.4c2.3-1.5,5-2.7,8.2-3.5c3.2-0.9,6.8-1.3,10.7-1.3
		c4.2,0,8.4,0.4,12.3,1.1C933.5,573.6,937.2,574.6,940.7,575.9z"/>
	<linearGradient id="SVGID_11_" gradientUnits="userSpaceOnUse" x1="963.0861" y1="559.5921" x2="1007.9373" y2="559.5921">
		<stop  offset="0" style="stop-color:#614B79"/>
		<stop  offset="1" style="stop-color:#4C3263"/>
	</linearGradient>
	<path class="st11" d="M1004.6,602.1c-0.3,0.2-1.3,0.7-4.2,2c-2.2,1-4.9,1.6-7.9,1.6c-2.4,0-4.6-0.7-6.5-2.1
		c-1.9-1.4-2.8-3.4-2.8-6.2v-57.5h18.5v-7.5h-18.5v-27.2h-8.9v27.2h-11.2v7.5h11.2v59.4c0,2.4,0.4,4.6,1.3,6.4
		c0.8,1.8,2,3.4,3.5,4.6c1.5,1.3,3.2,2.2,5.2,2.9c1.9,0.6,4,0.9,6.2,0.9c2.2,0,4.2-0.2,6.1-0.6c1.9-0.4,3.5-0.9,5-1.4
		c1.5-0.5,2.8-1.1,3.8-1.7c1-0.6,1.6-0.9,2-1.1l0.5-0.2l-2.7-7.3L1004.6,602.1z"/>
	<linearGradient id="SVGID_12_" gradientUnits="userSpaceOnUse" x1="1020.0243" y1="507.8571" x2="1028.9034" y2="507.8571">
		<stop  offset="0" style="stop-color:#614B79"/>
		<stop  offset="1" style="stop-color:#4C3263"/>
	</linearGradient>
	<rect x="1020" y="500.2" class="st12" width="8.9" height="15.3"/>
	<linearGradient id="SVGID_13_" gradientUnits="userSpaceOnUse" x1="1020.0243" y1="572.7551" x2="1028.9034" y2="572.7551">
		<stop  offset="0" style="stop-color:#614B79"/>
		<stop  offset="1" style="stop-color:#4C3263"/>
	</linearGradient>
	<rect x="1020" y="532.3" class="st13" width="8.9" height="80.8"/>
	<linearGradient id="SVGID_14_" gradientUnits="userSpaceOnUse" x1="1042.6744" y1="572.7551" x2="1118.9032" y2="572.7551">
		<stop  offset="0" style="stop-color:#614B79"/>
		<stop  offset="1" style="stop-color:#4C3263"/>
	</linearGradient>
	<polygon class="st14" points="1080.9,603.3 1052,532.3 1042.7,532.3 1076.4,613.2 1085.2,613.2 1118.9,532.3 1110.1,532.3 	"/>
	<linearGradient id="SVGID_15_" gradientUnits="userSpaceOnUse" x1="1124.2581" y1="572.8316" x2="1203.3937" y2="572.8316">
		<stop  offset="0" style="stop-color:#614B79"/>
		<stop  offset="1" style="stop-color:#4C3263"/>
	</linearGradient>
	<path class="st15" d="M1200.4,556.5c-2-5-4.7-9.4-8.2-13.2c-3.5-3.8-7.7-6.8-12.6-9c-4.9-2.2-10.2-3.3-15.9-3.3
		c-5.6,0-10.8,1.1-15.6,3.3c-4.8,2.2-9,5.2-12.5,8.9c-3.5,3.8-6.3,8.2-8.3,13.2c-2,5-3,10.4-3,16.1c0,5.8,1,11.3,3,16.3
		c2,5,4.8,9.6,8.4,13.4c3.6,3.9,7.8,7,12.7,9.2c4.9,2.2,10.2,3.3,15.9,3.3c3.7,0,7.4-0.5,10.9-1.5c3.5-1,6.8-2.4,9.7-4.1
		c2.9-1.8,5.6-3.9,7.8-6.3c2.2-2.4,3.9-5.2,5.1-8.1l0.3-0.6l-7.9-2.2l-0.2,0.5c-1,2.2-2.4,4.2-4.1,6c-1.7,1.8-3.8,3.4-6,4.7
		c-2.2,1.3-4.7,2.3-7.3,3.1c-2.6,0.7-5.3,1.1-7.9,1.1c-4.1,0-8-0.8-11.5-2.4c-3.6-1.6-6.8-3.8-9.5-6.6c-2.7-2.8-5-6.2-6.8-10
		c-1.7-3.7-2.8-7.7-3.1-11.9h69.5l0.2-0.3c0.1-0.2,0.2-0.6,0.2-1.7v-1.9C1203.4,566.9,1202.4,561.5,1200.4,556.5z M1194.8,569.1
		h-61.4c0.3-4.3,1.3-8.3,2.9-11.9c1.6-3.8,3.9-7.2,6.6-9.9c2.7-2.7,5.9-4.9,9.5-6.5c3.6-1.5,7.5-2.3,11.5-2.3c4.1,0,8,0.8,11.5,2.3
		c3.6,1.5,6.8,3.7,9.5,6.5c2.7,2.7,5,6.1,6.8,9.8C1193.4,560.7,1194.4,564.7,1194.8,569.1z"/>
</g>
</svg>
