<?xml version="1.0" encoding="utf-8"?>
<!-- Generator: Adobe Illustrator 22.0.0, SVG Export Plug-In . SVG Version: 6.00 Build 0)  -->
<svg version="1.1" id="Layer_1" xmlns="http://www.w3.org/2000/svg" xmlns:xlink="http://www.w3.org/1999/xlink" x="0px" y="0px"
	 viewBox="0 0 1080 1080" style="enable-background:new 0 0 1080 1080;" xml:space="preserve">
<style type="text/css">
	.st0{fill:url(#SVGID_1_);}
	.st1{fill:url(#SVGID_2_);}
	.st2{fill:url(#SVGID_3_);}
	.st3{fill:#FFFFFF;}
	.st4{fill:url(#SVGID_4_);}
	.st5{fill:url(#SVGID_5_);}
	.st6{fill:url(#SVGID_6_);}
	.st7{fill:url(#SVGID_7_);}
	.st8{fill:url(#SVGID_8_);}
	.st9{fill:url(#SVGID_9_);}
	.st10{fill:url(#SVGID_10_);}
	.st11{fill:url(#SVGID_11_);}
	.st12{fill:url(#SVGID_12_);}
	.st13{fill:url(#SVGID_13_);}
	.st14{fill:url(#SVGID_14_);}
	.st15{fill:url(#SVGID_15_);}
	.st16{fill:url(#SVGID_16_);}
	.st17{fill:url(#SVGID_17_);}
	.st18{fill:url(#SVGID_18_);}
	.st19{fill:url(#SVGID_19_);}
	.st20{fill:url(#SVGID_20_);}
	.st21{fill:url(#SVGID_21_);}
	.st22{fill:url(#SVGID_22_);}
	.st23{fill:url(#SVGID_23_);}
	.st24{fill:url(#SVGID_24_);}
	.st25{fill:url(#SVGID_25_);}
	.st26{fill:url(#SVGID_26_);}
	.st27{fill:url(#SVGID_27_);}
	.st28{fill:url(#SVGID_28_);}
	.st29{fill:url(#SVGID_29_);}
	.st30{fill:url(#SVGID_30_);}
	.st31{fill:url(#SVGID_31_);}
	.st32{fill:url(#SVGID_32_);}
	.st33{fill:url(#SVGID_33_);}
	.st34{fill:url(#SVGID_34_);}
	.st35{fill:url(#SVGID_35_);}
	.st36{fill:url(#SVGID_36_);}
	.st37{fill:url(#SVGID_37_);}
	.st38{opacity:0.8;fill:none;stroke:#FFFFFF;stroke-width:3;stroke-miterlimit:10;}
	.st39{opacity:0.7;fill:url(#SVGID_38_);}
	.st40{opacity:0.7;fill:url(#SVGID_39_);}
</style>
<g>
	<linearGradient id="SVGID_1_" gradientUnits="userSpaceOnUse" x1="487.5015" y1="137.821" x2="624.2526" y2="1187.9078">
		<stop  offset="0" style="stop-color:#614B79"/>
		<stop  offset="1" style="stop-color:#4C3263"/>
	</linearGradient>
	<path class="st0" d="M536.7,190c-94,0-182.3,36.4-248.8,102.5c-66.5,66.1-103,154-103,247.5c0,93.5,36.6,181.4,103,247.5
		C354.3,853.5,442.7,890,536.7,890c94,0,185.2-35.5,251.6-101.5c66.5-66.1,106.9-154.9,106.9-248.4c0-93.5-40.4-182.3-106.9-248.4
		C721.8,225.5,630.6,190,536.7,190z M770.5,770.4c-61.3,61.1-146.6,92.9-233.3,93l4.3,0l-0.3-66.7C398.5,795.1,282.8,682,282.8,540
		c0-150.9,137.4-256.4,257.7-256.4l0.3-66.9l-1.2-0.1c85.8,0.8,171.2,31.5,231.9,92c61.3,61.1,97.9,145.1,97.9,231.4
		C869.4,626.3,831.8,709.3,770.5,770.4z"/>
	<linearGradient id="SVGID_2_" gradientUnits="userSpaceOnUse" x1="799.6871" y1="155.1244" x2="289.0951" y2="1045.1469">
		<stop  offset="0" style="stop-color:#614B79"/>
		<stop  offset="1" style="stop-color:#4C3263"/>
	</linearGradient>
	<path class="st1" d="M545.2,794c137.7-1.1,253.4-116.7,253.4-253.9c0-137-115.6-252.6-253.5-254.2l0.1,62.5l-2.4,0
		c-105.9,0.3-192.1,86.2-192.1,191.5c0,105.3,86.2,191.2,192.1,191.5l2.4,0L545.2,794z M426,657.1c-31.4-31.3-48.7-72.8-48.7-117.1
		c0-44.2,17.3-85.8,48.7-117.1c31.4-31.3,73.2-48.5,117.7-48.5c44.5,0,86.3,17.2,117.7,48.5c31.4,31.3,48.7,72.8,48.7,117.1
		s-17.3,85.8-48.7,117.1c-31.4,31.3-73.2,48.5-117.7,48.5C499.2,705.5,457.4,688.3,426,657.1z"/>
</g>
</svg>
