<?xml version="1.0" encoding="utf-8"?>
<!-- Generator: Adobe Illustrator 22.0.0, SVG Export Plug-In . SVG Version: 6.00 Build 0)  -->
<svg version="1.1" id="Layer_1" xmlns="http://www.w3.org/2000/svg" xmlns:xlink="http://www.w3.org/1999/xlink" x="0px" y="0px"
	 viewBox="0 0 1920 400" style="enable-background:new 0 0 1920 400;" xml:space="preserve">
<style type="text/css">
	.st0{fill:url(#SVGID_1_);}
	.st1{fill:url(#SVGID_2_);}
	.st2{fill:url(#SVGID_3_);}
	.st3{fill:#FFFFFF;}
	.st4{fill:url(#SVGID_4_);}
	.st5{fill:url(#SVGID_5_);}
	.st6{fill:url(#SVGID_6_);}
	.st7{fill:url(#SVGID_7_);}
	.st8{fill:url(#SVGID_8_);}
	.st9{fill:url(#SVGID_9_);}
	.st10{fill:url(#SVGID_10_);}
	.st11{fill:url(#SVGID_11_);}
	.st12{fill:url(#SVGID_12_);}
	.st13{fill:url(#SVGID_13_);}
	.st14{fill:url(#SVGID_14_);}
	.st15{fill:url(#SVGID_15_);}
	.st16{fill:url(#SVGID_16_);}
	.st17{fill:url(#SVGID_17_);}
	.st18{fill:url(#SVGID_18_);}
	.st19{fill:url(#SVGID_19_);}
	.st20{fill:url(#SVGID_20_);}
	.st21{fill:url(#SVGID_21_);}
	.st22{fill:url(#SVGID_22_);}
	.st23{fill:url(#SVGID_23_);}
	.st24{fill:url(#SVGID_24_);}
	.st25{fill:url(#SVGID_25_);}
	.st26{fill:url(#SVGID_26_);}
	.st27{fill:url(#SVGID_27_);}
	.st28{fill:url(#SVGID_28_);}
	.st29{fill:url(#SVGID_29_);}
	.st30{fill:url(#SVGID_30_);}
	.st31{fill:url(#SVGID_31_);}
	.st32{fill:url(#SVGID_32_);}
	.st33{fill:url(#SVGID_33_);}
	.st34{fill:url(#SVGID_34_);}
	.st35{fill:url(#SVGID_35_);}
	.st36{fill:url(#SVGID_36_);}
	.st37{fill:url(#SVGID_37_);}
	.st38{opacity:0.8;fill:none;stroke:#FFFFFF;stroke-width:3;stroke-miterlimit:10;}
	.st39{fill:none;}
	.st40{font-family:'Raleway-Light';}
	.st41{font-size:75px;}
	.st42{letter-spacing:4;}
	.st43{opacity:0.7;fill:url(#SVGID_38_);}
	.st44{opacity:0.7;fill:url(#SVGID_39_);}
</style>
<linearGradient id="SVGID_1_" gradientUnits="userSpaceOnUse" x1="865.0247" y1="-256.4224" x2="1114.9382" y2="944.5856">
	<stop  offset="0" style="stop-color:#614B79"/>
	<stop  offset="1" style="stop-color:#4C3263"/>
</linearGradient>
<rect class="st0" width="1920" height="400"/>
<rect x="1251.4" y="181.3" class="st39" width="729.2" height="84.7"/>
<text transform="matrix(1 0 0 1 1495.5126 236.0381)" class="st3 st40 st41 st42">NEWS</text>
<g>
	<g>
		<path class="st3" d="M740.6,206.1c0-3.6,0.6-7.1,1.9-10.3c1.3-3.2,3-6.1,5.4-8.5c2.3-2.4,5.1-4.3,8.3-5.8
			c3.2-1.4,6.8-2.1,10.8-2.1c5.2,0,9.6,1.1,13.3,3.4c3.7,2.3,6.6,5.3,8.5,9.2l-8.5,2.7c-1.3-2.4-3.2-4.4-5.6-5.7c-2.4-1.4-5-2-7.9-2
			c-2.4,0-4.6,0.5-6.7,1.4c-2.1,1-3.9,2.3-5.5,4c-1.5,1.7-2.7,3.7-3.6,6.1c-0.9,2.3-1.3,4.9-1.3,7.6c0,2.7,0.5,5.3,1.4,7.6
			c0.9,2.4,2.2,4.5,3.7,6.2c1.6,1.8,3.4,3.1,5.5,4.1c2.1,1,4.3,1.5,6.7,1.5c1.5,0,3-0.2,4.5-0.6c1.5-0.4,2.8-1,4.1-1.7
			c1.2-0.7,2.3-1.6,3.2-2.5c0.9-1,1.6-2,2-3.1l8.5,2.6c-0.8,1.9-1.9,3.7-3.3,5.3c-1.4,1.6-3.1,2.9-5,4.1c-1.9,1.1-4.1,2-6.4,2.7
			c-2.3,0.7-4.8,1-7.4,1c-3.9,0-7.5-0.7-10.7-2.2c-3.2-1.5-6-3.4-8.3-5.9c-2.3-2.4-4.1-5.3-5.4-8.6
			C741.3,213.2,740.6,209.8,740.6,206.1z"/>
		<path class="st3" d="M826.5,188c-4.4,0.1-8.2,1.3-11.6,3.4c-3.3,2.1-5.7,5.1-7.1,8.8v32h-8.7v-51.8h8.1v12c1.8-3.6,4.1-6.5,7-8.7
			c2.9-2.2,6-3.5,9.3-3.7c0.7,0,1.2,0,1.7,0c0.5,0,0.9,0,1.2,0.1V188z"/>
		<path class="st3" d="M856.9,233.1c-3.9,0-7.5-0.7-10.7-2.1c-3.2-1.4-6-3.4-8.3-5.8c-2.3-2.4-4.1-5.3-5.4-8.6
			c-1.3-3.3-1.9-6.7-1.9-10.4c0-3.6,0.6-7.1,1.9-10.3c1.3-3.2,3.1-6.1,5.5-8.5c2.3-2.4,5.1-4.4,8.4-5.8c3.2-1.4,6.8-2.1,10.7-2.1
			c3.9,0,7.5,0.7,10.7,2.2c3.2,1.5,5.9,3.4,8.2,5.8c2.2,2.4,4,5.2,5.2,8.4c1.2,3.2,1.8,6.5,1.8,10c0,0.7,0,1.4,0,2
			c0,0.6-0.1,1.1-0.1,1.4h-43c0.2,2.6,0.8,4.9,1.8,7c1,2.1,2.3,3.9,3.9,5.5c1.6,1.5,3.4,2.7,5.4,3.6c2,0.9,4.2,1.3,6.4,1.3
			c1.6,0,3.1-0.2,4.7-0.6c1.5-0.4,2.9-1,4.3-1.7c1.3-0.7,2.5-1.6,3.5-2.7c1-1.1,1.8-2.2,2.3-3.6l7.5,2.1c-0.9,1.9-2,3.7-3.5,5.3
			c-1.5,1.6-3.2,3-5.2,4.1c-2,1.2-4.1,2.1-6.5,2.7C861.9,232.8,859.4,233.1,856.9,233.1z M874.6,202.8c-0.2-2.4-0.8-4.7-1.8-6.8
			c-1-2.1-2.3-3.9-3.9-5.3c-1.6-1.5-3.4-2.6-5.4-3.4c-2.1-0.8-4.2-1.2-6.6-1.2c-2.3,0-4.5,0.4-6.6,1.2c-2.1,0.8-3.9,2-5.4,3.5
			c-1.6,1.5-2.8,3.3-3.8,5.3c-1,2.1-1.5,4.3-1.7,6.7H874.6z"/>
		<path class="st3" d="M956.1,180.3h8.4l-22,51.8h-7.2l-10.4-25.3l-10.3,25.3h-7.2l-22-51.8h8.3l17.9,43.2l8.7-21.5l-8.9-21.5h7.2
			l6.4,16.6l6.4-16.6h7.2l-8.8,21.5l8.7,21.5L956.1,180.3z"/>
	</g>
	<g>
		<path class="st3" d="M415.1,219c-0.4,1.2-1.1,2.4-2.1,3.5c-1.1,1.1-2.3,2.1-3.8,3c-1.5,0.8-3.1,1.5-4.8,2
			c-1.7,0.5-3.5,0.8-5.2,0.8c-2.7,0-5.3-0.6-7.7-1.7c-2.4-1.2-4.6-2.8-6.3-4.7c-1.8-2-3.2-4.3-4.3-7c-1.1-2.7-1.6-5.6-1.6-8.6
			c0-3,0.5-5.9,1.6-8.5c1-2.6,2.5-4.9,4.2-6.9c1.8-1.9,3.9-3.5,6.3-4.6c2.4-1.1,5-1.7,7.8-1.7c3.3,0,6.3,0.8,9.1,2.4
			c2.7,1.6,4.9,3.8,6.3,6.5l0.2,0.3l5.6-1.8l-0.2-0.4c-1.8-3.8-4.6-6.9-8.2-9c-3.6-2.1-7.9-3.2-12.6-3.2c-3.7,0-7.2,0.7-10.4,2.1
			c-3.1,1.4-5.9,3.3-8.2,5.7c-2.3,2.4-4.1,5.3-5.3,8.6c-1.3,3.3-1.9,6.8-1.9,10.5c0,3.7,0.7,7.3,2,10.6c1.3,3.3,3.1,6.2,5.4,8.7
			c2.3,2.5,5.1,4.5,8.2,5.9c3.1,1.4,6.6,2.2,10.3,2.2c2.4,0,4.8-0.3,7.1-1c2.3-0.6,4.4-1.5,6.3-2.7c1.9-1.1,3.5-2.5,4.9-4.1
			c1.4-1.6,2.4-3.3,3.1-5.1l0.1-0.4l-5.6-1.6L415.1,219z"/>
		<path class="st3" d="M452.8,180c-3.4,0.3-6.7,1.7-9.7,4c-2.6,2-4.7,4.5-6.5,7.6v-11.5h-5.6v52.4h5.8v-32.6c1.4-4.4,3.8-8,7.1-10.5
			c3.4-2.6,7.4-3.9,11.9-4l0.4,0v-5.4h-1.7C454.1,179.9,453.5,180,452.8,180z"/>
		<path class="st3" d="M502.9,187.2c-2.3-2.4-5-4.4-8.2-5.8c-3.1-1.4-6.6-2.2-10.3-2.2c-3.6,0-7,0.7-10.1,2.1
			c-3.1,1.4-5.8,3.4-8.1,5.8c-2.3,2.4-4.1,5.3-5.4,8.6c-1.3,3.2-2,6.7-2,10.4c0,3.7,0.7,7.3,2,10.6c1.3,3.3,3.1,6.2,5.4,8.7
			c2.3,2.5,5.1,4.5,8.2,5.9c3.1,1.4,6.6,2.2,10.3,2.2c2.4,0,4.8-0.3,7.1-1c2.3-0.6,4.4-1.5,6.3-2.7c1.9-1.1,3.6-2.5,5.1-4.1
			c1.4-1.6,2.6-3.3,3.3-5.2l0.2-0.4l-5.1-1.4l-0.1,0.3c-0.6,1.4-1.5,2.7-2.7,3.9c-1.1,1.2-2.4,2.2-3.9,3.1c-1.5,0.8-3,1.5-4.7,2
			c-1.7,0.5-3.4,0.7-5.1,0.7c-2.6,0-5.2-0.5-7.5-1.6c-2.3-1-4.4-2.5-6.2-4.3c-1.8-1.8-3.3-4-4.4-6.5c-1.1-2.4-1.8-5-2-7.7h45.1
			l0.1-0.2c0.1-0.1,0.1-0.4,0.1-1.1v-1.2c0-3.6-0.6-7.1-1.9-10.3C507,192.6,505.2,189.7,502.9,187.2z M504.6,203.9h-39.8
			c0.2-2.8,0.9-5.4,1.9-7.7c1.1-2.5,2.5-4.7,4.3-6.4c1.8-1.8,3.9-3.2,6.2-4.2c2.3-1,4.8-1.5,7.5-1.5c2.6,0,5.2,0.5,7.5,1.5
			c2.3,1,4.4,2.4,6.2,4.2c1.8,1.8,3.3,3.9,4.4,6.4C503.7,198.5,504.3,201.1,504.6,203.9z"/>
		<path class="st3" d="M559.3,225.2V200c0-6.4-1.8-11.6-5.5-15.2c-3.6-3.7-8.7-5.5-15-5.5c-6,0-12.4,2.3-19.1,6.8l-0.3,0.2l2.3,4.1
			l0.4-0.2c2.9-2,5.7-3.5,8.5-4.5c2.8-1,5.4-1.6,7.8-1.6c4.6,0,8.3,1.4,11,4.2c2.7,2.8,4.1,6.6,4.1,11.4v4.5
			c-2.1-0.8-4.5-1.4-7.1-1.9c-2.8-0.5-5.7-0.8-8.5-0.8c-3.2,0-6.2,0.4-8.8,1.2c-2.7,0.8-5,1.9-6.9,3.2c-1.9,1.4-3.4,3-4.5,4.9
			c-1.1,1.9-1.6,4-1.6,6.4c0,2.3,0.4,4.5,1.3,6.5c0.9,2,2.1,3.7,3.7,5.2c1.6,1.4,3.4,2.6,5.5,3.5c2.1,0.8,4.4,1.3,6.8,1.3
			c4.3,0,8.4-0.8,12.2-2.5c3.4-1.5,6.3-3.7,8.6-6.4v3.1l0,0c0.1,1.3,0.6,2.5,1.5,3.4c0.9,1,2,1.5,3.5,1.5c0.3,0,0.6,0,1-0.1
			c0.4,0,0.7-0.1,1.1-0.2l0.3-0.1v-5.2h-0.4C559.8,227.3,559.3,226.6,559.3,225.2z M553.5,208.4v8.9c0,1.2-0.5,2.4-1.5,3.7
			c-1.7,2.3-4.1,4.2-7.2,5.6c-3.1,1.4-6.6,2.1-10.4,2.1c-1.8,0-3.5-0.3-5.1-0.9c-1.6-0.6-2.9-1.4-4.1-2.5c-1.1-1.1-2-2.3-2.7-3.8
			c-0.6-1.5-1-3-1-4.7c0-1.6,0.4-3.2,1.2-4.5c0.8-1.4,1.9-2.5,3.4-3.5c1.5-1,3.3-1.7,5.3-2.3c2.1-0.6,4.4-0.8,6.9-0.8
			c2.7,0,5.4,0.2,8,0.7C548.8,206.9,551.2,207.5,553.5,208.4z"/>
		<path class="st3" d="M594.9,225.3c-0.2,0.1-0.9,0.5-2.7,1.3c-1.4,0.7-3.2,1-5.1,1c-1.6,0-3-0.5-4.2-1.4c-1.2-0.9-1.8-2.2-1.8-4
			V185h12v-4.9h-12v-17.7h-5.8v17.7H568v4.9h7.2v38.5c0,1.6,0.3,3,0.8,4.1c0.5,1.2,1.3,2.2,2.3,3c1,0.8,2.1,1.5,3.4,1.9
			c1.3,0.4,2.6,0.6,4,0.6c1.4,0,2.7-0.1,4-0.4c1.2-0.3,2.3-0.6,3.3-0.9c1-0.3,1.8-0.7,2.5-1.1c0.6-0.4,1.1-0.6,1.3-0.7l0.3-0.2
			l-1.8-4.8L594.9,225.3z"/>
		<rect x="604.9" y="159.3" class="st3" width="5.8" height="9.9"/>
		<rect x="604.9" y="180.1" class="st3" width="5.8" height="52.4"/>
		<polygon class="st3" points="644.4,226.1 625.6,180.1 619.6,180.1 641.5,232.5 647.2,232.5 669,180.1 663.3,180.1 		"/>
		<path class="st3" d="M721.9,195.8c-1.3-3.2-3.1-6.1-5.3-8.6c-2.3-2.4-5-4.4-8.2-5.8c-3.1-1.4-6.6-2.2-10.3-2.2
			c-3.6,0-7,0.7-10.1,2.1c-3.1,1.4-5.8,3.4-8.1,5.8c-2.3,2.4-4.1,5.3-5.4,8.6c-1.3,3.2-2,6.7-2,10.4c0,3.7,0.7,7.3,2,10.6
			c1.3,3.3,3.1,6.2,5.4,8.7c2.3,2.5,5.1,4.5,8.2,5.9c3.1,1.4,6.6,2.2,10.3,2.2c2.4,0,4.8-0.3,7.1-1c2.3-0.6,4.4-1.5,6.3-2.7
			c1.9-1.1,3.6-2.5,5.1-4.1c1.4-1.6,2.6-3.3,3.3-5.2l0.2-0.4l-5.1-1.4l-0.1,0.3c-0.6,1.4-1.5,2.7-2.7,3.9c-1.1,1.2-2.4,2.2-3.9,3.1
			c-1.5,0.8-3,1.5-4.7,2c-1.7,0.5-3.4,0.7-5.1,0.7c-2.6,0-5.2-0.5-7.5-1.6c-2.3-1-4.4-2.5-6.2-4.3c-1.8-1.8-3.3-4-4.4-6.5
			c-1.1-2.4-1.8-5-2-7.7h45.1l0.1-0.2c0.1-0.1,0.1-0.4,0.1-1.1v-1.2C723.8,202.5,723.2,199.1,721.9,195.8z M718.2,203.9h-39.8
			c0.2-2.8,0.9-5.4,1.9-7.7c1.1-2.5,2.5-4.7,4.3-6.4c1.8-1.8,3.9-3.2,6.2-4.2c2.3-1,4.8-1.5,7.5-1.5c2.6,0,5.2,0.5,7.5,1.5
			c2.3,1,4.4,2.4,6.2,4.2c1.8,1.8,3.3,3.9,4.4,6.4C717.4,198.5,718,201.1,718.2,203.9z"/>
	</g>
	<g>
		<path class="st3" d="M252.2,119.7c-22.6,0-43.9,8.8-59.9,24.7c-16,15.9-24.8,37.1-24.8,59.6c0,22.5,8.8,43.7,24.8,59.6
			c16,15.9,37.3,24.7,59.9,24.7c22.6,0,44.6-8.5,60.6-24.5c16-15.9,25.7-37.3,25.7-59.8c0-22.5-9.7-43.9-25.7-59.8
			C296.8,128.2,274.8,119.7,252.2,119.7z M308.5,259.5c-14.8,14.7-35.3,22.4-56.2,22.4l1,0l-0.1-16.1c-34.4-0.4-62.2-27.6-62.2-61.8
			c0-36.3,33.1-61.8,62.1-61.8l0.1-16.1l-0.3,0c20.7,0.2,41.2,7.6,55.9,22.2c14.8,14.7,23.6,34.9,23.6,55.7
			C332.4,224.8,323.3,244.8,308.5,259.5z"/>
		<path class="st3" d="M254.3,265.2c33.2-0.3,61-28.1,61-61.2c0-33-27.9-60.9-61.1-61.2l0,15.1l-0.6,0
			c-25.5,0.1-46.3,20.8-46.3,46.1c0,25.4,20.8,46.1,46.3,46.1l0.6,0L254.3,265.2z M225.5,232.2c-7.6-7.5-11.7-17.5-11.7-28.2
			c0-10.7,4.2-20.7,11.7-28.2c7.6-7.5,17.6-11.7,28.4-11.7s20.8,4.1,28.4,11.7c7.6,7.5,11.7,17.5,11.7,28.2
			c0,10.7-4.2,20.7-11.7,28.2c-7.6,7.5-17.6,11.7-28.4,11.7S233.1,239.7,225.5,232.2z"/>
	</g>
</g>
<linearGradient id="SVGID_2_" gradientUnits="userSpaceOnUse" x1="1736.5416" y1="-161.0363" x2="1738.8124" y2="-163.307" gradientTransform="matrix(0.9522 -0.3055 0.3055 0.9522 5.4521 432.8369)">
	<stop  offset="0" style="stop-color:#9977A4"/>
	<stop  offset="1" style="stop-color:#4C3263"/>
</linearGradient>
<polygon style="opacity:0.7;fill:url(#SVGID_2_);" points="1359.6,157.1 1359.2,294.4 1376.9,280.2 1377.3,142.9 "/>
<linearGradient id="SVGID_3_" gradientUnits="userSpaceOnUse" x1="2002.9146" y1="-387.8045" x2="2006.5626" y2="-391.4525" gradientTransform="matrix(0.9522 -0.3055 0.3055 0.9522 5.4521 432.8369)">
	<stop  offset="0" style="stop-color:#9977A4"/>
	<stop  offset="1" style="stop-color:#4C3263"/>
</linearGradient>
<polygon style="opacity:0.7;fill:url(#SVGID_3_);" points="1414.9,316.6 1415.1,81.7 1397.4,95.9 1397.1,330.7 "/>
</svg>
